#!OML:ASF X:\für Bonn\!DataBase\2005_08_11_Bastian_Final\c3d\Bastian.ASF
:FULLY-SPECIFIED
:DEGREES
125
root -1.71861 16.4891 2.22873 174.442 -3.95409 -173.905
lowerback 20.1488 -0.640269 -0.124566
upperback 5.18953 -1.698 0.699586
thorax -5.61402 -1.1986 1.27141
lowerneck -8.08886 -6.56454 -4.12097
upperneck -6.41346 -7.34806 13.7623
head 0.149077 -3.19736 4.58915
rclavicle -1.74931e-014 -7.95139e-015
rhumerus 73.5454 16.6636 9.72484
rradius 38.0242
rwrist -64.0074
rhand -49.3148 -7.38387
rfingers 7.12502
rthumb -21.9313 -36.1608
lclavicle -1.74931e-014 -7.95139e-015
lhumerus 77.2917 -17.319 -48.6392
lradius 31.3859
lwrist 36.4155
lhand -43.9873 21.8852
lfingers 7.12502
lthumb -16.809 51.1776
rfemur -19.3662 -2.54341 27.3177
rtibia 56.3677
rfoot -27.5025 -8.16425
rtoes -10.4855
lfemur -18.8386 2.05211 -14.5728
ltibia 54.4035
lfoot -22.7698 -6.86056
ltoes -5.11397
126
root -1.7154 16.5977 2.21755 174.718 -4.118 -173.974
lowerback 19.7168 -0.724473 -0.149728
upperback 5.07362 -1.77583 0.666805
thorax -5.51119 -1.21993 1.25709
lowerneck -8.1326 -6.53865 -4.05569
upperneck -6.25899 -7.3413 13.7299
head 0.196367 -3.19231 4.56515
rclavicle -6.36111e-015 8.74653e-015
rhumerus 73.599 16.8397 9.67913
rradius 37.9892
rwrist -64.0329
rhand -49.2588 -7.22573
rfingers 7.12502
rthumb -21.8775 -36.0089
lclavicle -6.36111e-015 8.74653e-015
lhumerus 77.5522 -17.368 -49.0931
lradius 31.4826
lwrist 36.8477
lhand -44.0344 21.8983
lfingers 7.12502
lthumb -16.8543 51.1869
rfemur -18.7605 -1.90053 27.2375
rtibia 54.7696
rfoot -27.0996 -8.02716
rtoes -10.1725
lfemur -18.1429 1.93416 -14.664
ltibia 52.5352
lfoot -21.9114 -6.70534
ltoes -5.17623
127
root -1.71134 16.6998 2.20578 174.98 -4.27902 -174.021
lowerback 19.2837 -0.811217 -0.182182
upperback 4.95156 -1.85615 0.676914
thorax -5.41168 -1.24273 1.29277
lowerneck -8.15235 -6.50652 -4.05448
upperneck -6.10455 -7.32642 13.6856
head 0.241077 -3.18505 4.54894
rclavicle 2.98177e-015 -3.73715e-014
rhumerus 73.7035 17.0435 9.73241
rradius 37.9703
rwrist -64.0482
rhand -49.2186 -7.08974
rfingers 7.12502
rthumb -21.8389 -35.8774
lclavicle 2.98177e-015 -3.73715e-014
lhumerus 77.7988 -17.4217 -49.7101
lradius 31.6472
lwrist 37.442
lhand -44.1061 22.0188
lfingers 7.12502
lthumb -16.9234 51.3014
rfemur -18.1715 -1.17092 27.1924
rtibia 53.232
rfoot -26.7062 -7.98682
rtoes -9.85382
lfemur -17.4595 1.79633 -14.7249
ltibia 50.7293
lfoot -21.1361 -6.54943
ltoes -5.44922
128
root -1.70716 16.7942 2.19318 175.246 -4.43715 -174.065
lowerback 18.8146 -0.891426 -0.198204
upperback 4.84641 -1.92802 0.675072
thorax -5.27504 -1.26302 1.30205
lowerneck -8.22811 -6.48336 -4.04769
upperneck -5.91711 -7.3246 13.6623
head 0.306479 -3.18006 4.53562
rclavicle 1.8487e-014 -1.82882e-014
rhumerus 73.7646 17.233 9.68952
rradius 37.9389
rwrist -64.0766
rhand -49.1626 -6.92523
rfingers 7.12502
rthumb -21.7852 -35.7192
lclavicle 1.8487e-014 -1.82882e-014
lhumerus 78.0108 -17.4709 -50.0836
lradius 31.7645
lwrist 37.8571
lhand -44.1793 22.0848
lfingers 7.12502
lthumb -16.9938 51.3614
rfemur -17.6387 -0.403843 27.1521
rtibia 51.7694
rfoot -26.3148 -7.99425
rtoes -9.54738
lfemur -16.8101 1.67078 -14.7799
ltibia 48.9954
lfoot -20.4143 -6.40284
ltoes -5.5525
129
root -1.70304 16.8801 2.17848 175.473 -4.56921 -174.11
lowerback 18.357 -0.960428 -0.212904
upperback 4.75501 -1.98849 0.681505
thorax -5.12879 -1.27965 1.31628
lowerneck -8.30166 -6.45379 -4.02846
upperneck -5.75363 -7.31286 13.6016
head 0.361249 -3.17154 4.50999
rclavicle 5.96354e-016 -3.73715e-014
rhumerus 73.8497 17.4091 9.82838
rradius 37.9312
rwrist -64.1308
rhand -49.1365 -6.84542
rfingers 7.12502
rthumb -21.7601 -35.6423
lclavicle 5.96354e-016 -3.73715e-014
lhumerus 78.2373 -17.5439 -50.3867
lradius 31.8221
lwrist 38.1706
lhand -44.258 22.1923
lfingers 7.12502
lthumb -17.0696 51.4624
rfemur -17.0913 0.428409 27.1229
rtibia 50.3681
rfoot -25.9169 -8.11263
rtoes -9.23565
lfemur -16.1401 1.5249 -14.8334
ltibia 47.3427
lfoot -19.7642 -6.22075
ltoes -5.78441
130
root -1.69826 16.9569 2.16406 175.674 -4.66586 -174.11
lowerback 17.9023 -1.01121 -0.175911
upperback 4.6701 -2.0178 0.691635
thorax -4.9783 -1.28248 1.29775
lowerneck -8.36432 -6.44761 -4.02035
upperneck -5.57541 -7.33418 13.5649
head 0.423132 -3.17925 4.49192
rclavicle -1.09332e-014 -2.54444e-014
rhumerus 73.9002 17.5809 10.0766
rradius 37.9689
rwrist -64.2605
rhand -49.1642 -6.84287
rfingers 7.12502
rthumb -21.7867 -35.6366
lclavicle -1.09332e-014 -2.54444e-014
lhumerus 78.5155 -17.5908 -50.7142
lradius 31.8678
lwrist 38.5771
lhand -44.3694 22.2405
lfingers 7.12502
lthumb -17.1768 51.5013
rfemur -16.559 1.29744 27.1599
rtibia 49.0402
rfoot -25.5479 -8.28954
rtoes -8.60941
lfemur -15.4906 1.37059 -14.8324
ltibia 45.7847
lfoot -19.1668 -6.02335
ltoes -5.80846
